<svg width="24" height="25" viewBox="0 0 24 25" fill="none" xmlns="http://www.w3.org/2000/svg">
<path d="M10.268 21.7686C10.4435 22.0726 10.696 22.325 11 22.5005C11.3041 22.6761 11.6489 22.7685 12 22.7685C12.3511 22.7685 12.6959 22.6761 13 22.5005C13.304 22.325 13.5565 22.0726 13.732 21.7686M3.262 16.0946C3.13137 16.2377 3.04516 16.4158 3.01386 16.6071C2.98256 16.7984 3.00752 16.9946 3.08571 17.172C3.1639 17.3493 3.29194 17.5001 3.45426 17.606C3.61658 17.7119 3.80618 17.7684 4 17.7686H20C20.1938 17.7686 20.3834 17.7124 20.5459 17.6067C20.7083 17.5009 20.8365 17.3503 20.9149 17.1731C20.9933 16.9958 21.0185 16.7996 20.9874 16.6083C20.9564 16.417 20.8704 16.2389 20.74 16.0956C19.41 14.7246 18 13.2676 18 8.76855C18 7.17726 17.3679 5.65113 16.2426 4.52591C15.1174 3.4007 13.5913 2.76855 12 2.76855C10.4087 2.76855 8.88258 3.4007 7.75736 4.52591C6.63214 5.65113 6 7.17726 6 8.76855C6 13.2676 4.589 14.7246 3.262 16.0946Z" stroke="#1E1E1E" style="stroke:#1E1E1E;stroke:color(display-p3 0.1176 0.1176 0.1176);stroke-opacity:1;" stroke-width="1.5" stroke-linecap="round" stroke-linejoin="round"/>
</svg>
