<svg width="68" height="68" viewBox="0 0 68 68" fill="none" xmlns="http://www.w3.org/2000/svg">
<path d="M33.7754 9.05322C32.5328 9.05322 31.5254 8.04578 31.5254 6.80322V2.30322C31.5254 1.06067 32.5328 0.0532227 33.7754 0.0532227C35.0179 0.0532227 36.0254 1.06067 36.0254 2.30322V6.80322C36.0254 8.04578 35.0179 9.05322 33.7754 9.05322Z" fill="url(#paint0_linear_40002074_10205)" style=""/>
<path d="M38.2754 54.0532H29.2754C28.0328 54.0532 27.0254 55.0607 27.0254 56.3032V60.8032C27.0254 64.5254 30.0532 67.5532 33.7754 67.5532C37.4976 67.5532 40.5254 64.5254 40.5254 60.8032V56.3032C40.5254 55.0607 39.5179 54.0532 38.2754 54.0532Z" fill="url(#paint1_linear_40002074_10205)" style=""/>
<path d="M57.73 47.8262L55.7524 45.8486C54.8647 44.9609 54.0254 42.934 54.0254 41.6782V24.8032C54.0254 13.6378 44.9408 4.55322 33.7754 4.55322C22.61 4.55322 13.5254 13.6378 13.5254 24.8032V41.6782C13.5254 42.934 12.686 44.9609 11.7983 45.8486L9.8208 47.8262C8.08496 49.562 6.77539 52.7228 6.77539 55.1782V56.3032C6.77539 57.5458 7.78284 58.5532 9.02539 58.5532H58.5254C59.7679 58.5532 60.7754 57.5458 60.7754 56.3032V55.1782C60.7754 52.7228 59.4658 49.562 57.73 47.8262Z" fill="url(#paint2_linear_40002074_10205)" style=""/>
<path d="M65.2754 67.5532C64.6997 67.5532 64.124 67.3335 63.6846 66.894L0.68457 3.89404C-0.194336 3.01514 -0.194336 1.59131 0.68457 0.712402C1.56348 -0.166504 2.9873 -0.166504 3.86621 0.712402L66.8662 63.7124C67.7451 64.5913 67.7451 66.0151 66.8662 66.894C66.4268 67.3335 65.8511 67.5532 65.2754 67.5532Z" fill="url(#paint3_linear_40002074_10205)" style=""/>
<defs>
<linearGradient id="paint0_linear_40002074_10205" x1="31.5254" y1="4.55322" x2="36.0254" y2="4.55322" gradientUnits="userSpaceOnUse">
<stop stop-color="#42A5F5" style="stop-color:#42A5F5;stop-color:color(display-p3 0.2588 0.6471 0.9608);stop-opacity:1;"/>
<stop offset="1" stop-color="#1E88E5" style="stop-color:#1E88E5;stop-color:color(display-p3 0.1176 0.5333 0.8980);stop-opacity:1;"/>
</linearGradient>
<linearGradient id="paint1_linear_40002074_10205" x1="27.0254" y1="60.8032" x2="40.5254" y2="60.8032" gradientUnits="userSpaceOnUse">
<stop stop-color="#42A5F5" style="stop-color:#42A5F5;stop-color:color(display-p3 0.2588 0.6471 0.9608);stop-opacity:1;"/>
<stop offset="1" stop-color="#1E88E5" style="stop-color:#1E88E5;stop-color:color(display-p3 0.1176 0.5333 0.8980);stop-opacity:1;"/>
</linearGradient>
<linearGradient id="paint2_linear_40002074_10205" x1="6.77539" y1="31.5532" x2="60.7754" y2="31.5532" gradientUnits="userSpaceOnUse">
<stop stop-color="#BBDEFB" style="stop-color:#BBDEFB;stop-color:color(display-p3 0.7333 0.8706 0.9843);stop-opacity:1;"/>
<stop offset="1" stop-color="#64B5F6" style="stop-color:#64B5F6;stop-color:color(display-p3 0.3922 0.7098 0.9647);stop-opacity:1;"/>
</linearGradient>
<linearGradient id="paint3_linear_40002074_10205" x1="0.0253907" y1="33.8032" x2="67.5254" y2="33.8032" gradientUnits="userSpaceOnUse">
<stop stop-color="#42A5F5" style="stop-color:#42A5F5;stop-color:color(display-p3 0.2588 0.6471 0.9608);stop-opacity:1;"/>
<stop offset="1" stop-color="#1E88E5" style="stop-color:#1E88E5;stop-color:color(display-p3 0.1176 0.5333 0.8980);stop-opacity:1;"/>
</linearGradient>
</defs>
</svg>
