<svg width="101" height="101" viewBox="0 0 101 101" fill="none" xmlns="http://www.w3.org/2000/svg">
<path fill-rule="evenodd" clip-rule="evenodd" d="M81.5259 56.4541H19.0259V85.3791C19.0259 86.7588 19.9306 87.976 21.2524 88.3728C27.5321 90.2557 45.1915 95.5541 49.3774 96.8103C49.9634 96.9854 50.5884 96.9854 51.1743 96.8103C55.3603 95.5541 73.0196 90.2557 79.2993 88.3728C80.6212 87.976 81.5259 86.7588 81.5259 85.3791C81.5259 78.1354 81.5259 56.4541 81.5259 56.4541Z" fill="#CADCF0" style="fill:#CADCF0;fill:color(display-p3 0.7922 0.8627 0.9412);fill-opacity:1;"/>
<path fill-rule="evenodd" clip-rule="evenodd" d="M81.526 56.4541H50.276C50.276 56.4541 49.9728 96.9416 50.276 96.9416C50.5791 96.9416 50.8806 96.8979 51.1744 96.8103C55.3603 95.5541 73.0197 90.2557 79.2994 88.3728C80.6213 87.976 81.526 86.7588 81.526 85.3791C81.526 78.1354 81.526 56.4541 81.526 56.4541Z" fill="#A4BBDB" style="fill:#A4BBDB;fill:color(display-p3 0.6431 0.7333 0.8588);fill-opacity:1;"/>
<path fill-rule="evenodd" clip-rule="evenodd" d="M50.2759 66.5932L19.0259 56.4541C19.0259 56.4541 13.5462 64.5791 11.0962 68.2103C10.8212 68.6182 10.754 69.1291 10.9134 69.5932C11.0743 70.0572 11.4415 70.4182 11.9087 70.5713C17.8447 72.4994 35.4165 78.2088 40.0259 79.7057C40.6868 79.9213 41.4118 79.6729 41.8025 79.0963C43.8978 76.0041 50.2759 66.5932 50.2759 66.5932Z" fill="#E9F3FC" style="fill:#E9F3FC;fill:color(display-p3 0.9137 0.9529 0.9882);fill-opacity:1;"/>
<path fill-rule="evenodd" clip-rule="evenodd" d="M81.5259 56.4541L50.2759 66.5932C50.2759 66.5932 56.654 76.0041 58.7493 79.0963C59.1399 79.6729 59.8649 79.9213 60.5259 79.7057C65.1353 78.2088 82.7071 72.4994 88.6431 70.5713C89.1103 70.4182 89.4774 70.0572 89.6384 69.5932C89.7978 69.1291 89.7306 68.6182 89.4556 68.2103C87.0056 64.5791 81.5259 56.4541 81.5259 56.4541Z" fill="#E9F3FC" style="fill:#E9F3FC;fill:color(display-p3 0.9137 0.9529 0.9882);fill-opacity:1;"/>
<path fill-rule="evenodd" clip-rule="evenodd" d="M42.7118 35.1559C42.3212 34.5825 41.5977 34.334 40.9368 34.5496C36.3305 36.045 18.754 41.7559 12.818 43.6856C12.3508 43.8371 11.9821 44.1981 11.8227 44.6621C11.6633 45.1262 11.7305 45.6387 12.0055 46.045C14.2618 49.3918 19.0258 56.4543 19.0258 56.4543L50.2758 46.2809C50.2758 46.2809 44.6633 38.0262 42.7118 35.1559Z" fill="#CADCF0" style="fill:#CADCF0;fill:color(display-p3 0.7922 0.8627 0.9412);fill-opacity:1;"/>
<path fill-rule="evenodd" clip-rule="evenodd" d="M88.5462 46.045C88.8212 45.6387 88.8884 45.1262 88.729 44.6621C88.5696 44.1981 88.2009 43.8371 87.7337 43.6856C81.7978 41.7559 64.2212 36.045 59.6149 34.5496C58.954 34.334 58.2306 34.5825 57.8399 35.1559C55.8884 38.0262 50.2759 46.2809 50.2759 46.2809L81.5259 56.4543C81.5259 56.4543 86.2899 49.3918 88.5462 46.045Z" fill="#E9F3FC" style="fill:#E9F3FC;fill:color(display-p3 0.9137 0.9529 0.9882);fill-opacity:1;"/>
<path fill-rule="evenodd" clip-rule="evenodd" d="M81.5259 56.4547L50.2759 46.2812L19.0259 56.4547L50.2759 66.5937L81.5259 56.4547Z" fill="#CADCF0" style="fill:#CADCF0;fill:color(display-p3 0.7922 0.8627 0.9412);fill-opacity:1;"/>
<path fill-rule="evenodd" clip-rule="evenodd" d="M50.2759 66.5937V46.2812L19.0259 56.4547L50.2759 66.5937Z" fill="#A4BBDB" style="fill:#A4BBDB;fill:color(display-p3 0.6431 0.7333 0.8588);fill-opacity:1;"/>
<path fill-rule="evenodd" clip-rule="evenodd" d="M43.9978 50.7685C43.3478 50.3435 42.7619 49.8889 42.2416 49.4123C41.6072 48.8295 40.6181 48.8717 40.0338 49.5076C39.4509 50.142 39.4931 51.131 40.1291 51.7139C40.7681 52.3014 41.4884 52.8607 42.2884 53.3842C43.0103 53.856 43.9791 53.6529 44.4509 52.931C44.9228 52.2092 44.7197 51.2404 43.9978 50.7685Z" fill="#347BFA" style="fill:#347BFA;fill:color(display-p3 0.2039 0.4824 0.9804);fill-opacity:1;"/>
<path fill-rule="evenodd" clip-rule="evenodd" d="M39.1291 45.9687C38.665 45.339 38.2728 44.7062 37.951 44.0734C37.5603 43.3046 36.6181 42.9984 35.8494 43.389C35.0806 43.7796 34.7744 44.7218 35.165 45.4906C35.5619 46.2687 36.0431 47.0484 36.6135 47.8218C37.1244 48.5156 38.1025 48.664 38.7978 48.1531C39.4916 47.6406 39.64 46.6625 39.1291 45.9687Z" fill="#347BFA" style="fill:#347BFA;fill:color(display-p3 0.2039 0.4824 0.9804);fill-opacity:1;"/>
<path fill-rule="evenodd" clip-rule="evenodd" d="M36.8447 39.5916C36.8603 38.9619 36.9525 38.351 37.1212 37.7651C37.3587 36.9369 36.8791 36.0698 36.0494 35.8323C35.2212 35.5948 34.3541 36.0744 34.1166 36.9041C33.8775 37.7416 33.7431 38.6151 33.7197 39.5135C33.6994 40.376 34.3806 41.0932 35.2431 41.1135C36.1056 41.1354 36.8228 40.4541 36.8447 39.5916Z" fill="#347BFA" style="fill:#347BFA;fill:color(display-p3 0.2039 0.4824 0.9804);fill-opacity:1;"/>
<path fill-rule="evenodd" clip-rule="evenodd" d="M39.2478 34.3735C39.6494 34.0017 40.0994 33.6579 40.5916 33.347C41.3213 32.886 41.54 31.9204 41.0806 31.1923C40.6197 30.4626 39.6541 30.2438 38.9244 30.7032C38.2634 31.1204 37.6634 31.5813 37.1244 32.0813C36.4916 32.6673 36.4541 33.6563 37.04 34.2892C37.6259 34.922 38.615 34.9595 39.2478 34.3735Z" fill="#347BFA" style="fill:#347BFA;fill:color(display-p3 0.2039 0.4824 0.9804);fill-opacity:1;"/>
<path fill-rule="evenodd" clip-rule="evenodd" d="M45.0588 31.6777C45.8447 31.5323 46.6775 31.4386 47.5556 31.4027C48.4181 31.3652 49.0869 30.6355 49.0509 29.7745C49.015 28.9136 48.2853 28.2433 47.4228 28.2792C46.3916 28.323 45.4134 28.4339 44.49 28.6042C43.6431 28.762 43.0806 29.5777 43.2384 30.4245C43.3947 31.273 44.2103 31.8339 45.0588 31.6777Z" fill="#347BFA" style="fill:#347BFA;fill:color(display-p3 0.2039 0.4824 0.9804);fill-opacity:1;"/>
<path fill-rule="evenodd" clip-rule="evenodd" d="M53.2025 31.586C54.5353 31.6017 55.7759 31.5548 56.9275 31.4532C57.7868 31.3767 58.4228 30.6173 58.3462 29.7579C58.2696 28.9001 57.5103 28.2642 56.6509 28.3407C55.5962 28.4329 54.4603 28.4767 53.2384 28.461C52.3759 28.4517 51.6681 29.1438 51.6587 30.0048C51.6478 30.8673 52.34 31.5767 53.2025 31.586Z" fill="#347BFA" style="fill:#347BFA;fill:color(display-p3 0.2039 0.4824 0.9804);fill-opacity:1;"/>
<path fill-rule="evenodd" clip-rule="evenodd" d="M62.0634 30.4951C63.6103 30.0217 64.9165 29.4154 66.0103 28.7201C66.7368 28.256 66.9525 27.2904 66.4884 26.5623C66.0259 25.8357 65.0587 25.6201 64.3306 26.0842C63.4509 26.6435 62.3962 27.1248 61.1493 27.506C60.3259 27.7592 59.8603 28.6326 60.1134 29.4576C60.365 30.2826 61.24 30.7467 62.0634 30.4951Z" fill="#347BFA" style="fill:#347BFA;fill:color(display-p3 0.2039 0.4824 0.9804);fill-opacity:1;"/>
<path fill-rule="evenodd" clip-rule="evenodd" d="M70.0166 24.3465C70.7541 22.8215 71.037 21.209 70.9651 19.6543C70.9245 18.7918 70.1916 18.1262 69.3307 18.1668C68.4698 18.2074 67.8026 18.9387 67.8432 19.7996C67.8932 20.8559 67.7026 21.9512 67.2026 22.9871C66.8276 23.7637 67.1526 24.6996 67.9291 25.0746C68.7057 25.4496 69.6416 25.1231 70.0166 24.3465Z" fill="#347BFA" style="fill:#347BFA;fill:color(display-p3 0.2039 0.4824 0.9804);fill-opacity:1;"/>
<path fill-rule="evenodd" clip-rule="evenodd" d="M69.0212 14.1296C67.8822 12.5905 66.3369 11.5186 64.6525 11.1733C63.8072 11.0014 62.9806 11.5452 62.8072 12.3905C62.6353 13.2358 63.1806 14.0624 64.0244 14.2358C64.9962 14.4343 65.8525 15.1014 66.5103 15.9905C67.0244 16.6827 68.004 16.828 68.6962 16.3155C69.39 15.8014 69.5353 14.8218 69.0212 14.1296Z" fill="#347BFA" style="fill:#347BFA;fill:color(display-p3 0.2039 0.4824 0.9804);fill-opacity:1;"/>
<path fill-rule="evenodd" clip-rule="evenodd" d="M48.6086 11.4763C50.2993 1.90291 64.9508 2.52166 56.4211 11.4763H48.6086Z" fill="#CADCF0" style="fill:#CADCF0;fill:color(display-p3 0.7922 0.8627 0.9412);fill-opacity:1;"/>
<path fill-rule="evenodd" clip-rule="evenodd" d="M48.6086 13.9014C50.2993 23.4732 64.9508 22.8561 56.4211 13.9014H48.6086Z" fill="#CADCF0" style="fill:#CADCF0;fill:color(display-p3 0.7922 0.8627 0.9412);fill-opacity:1;"/>
<path fill-rule="evenodd" clip-rule="evenodd" d="M48.4681 14.2666H58.9306C59.7931 14.2666 60.4931 13.5666 60.4931 12.7041C60.4931 11.8416 59.7931 11.1416 58.9306 11.1416H48.4681C47.6072 11.1416 46.9056 11.8416 46.9056 12.7041C46.9056 13.5666 47.6072 14.2666 48.4681 14.2666Z" fill="#347BFA" style="fill:#347BFA;fill:color(display-p3 0.2039 0.4824 0.9804);fill-opacity:1;"/>
</svg>
